<?xml version="1.0" encoding="utf-8"?>
<!-- Generator: Adobe Illustrator 19.2.1, SVG Export Plug-In . SVG Version: 6.00 Build 0)  -->
<svg version="1.1" id="layer" xmlns="http://www.w3.org/2000/svg" xmlns:xlink="http://www.w3.org/1999/xlink" x="0px" y="0px"
	 viewBox="0 0 652 652" style="enable-background:new 0 0 652 652;" xml:space="preserve">
<style type="text/css">
	.st0{fill-rule:evenodd;clip-rule:evenodd;fill:#B1B2B4;}
</style>
<g>
	<path class="st0" d="M173.6,533.6L58.9,571L58.8,71h149.9c60.3,0,124.6,30,124.6,139.3c0,96.7-61.9,131.7-119.9,140.9v-163
		c0-16.5-11.6-40.5-37.5-40.5h-2.3V533.6z"/>
	<path class="st0" d="M406.3,230.3v62.9c0,0,113-35,106.1,27.9c-7.4,67.2-59.9,79-145.5,80.4l-0.1,71c0,0,121,0.3,169-45.2
		c46.7-44.3,45.5-96.4,46.7-113.8c1.2-17.3-12.8-95.9-93.7-80.8l0-3l91.1-89.9V71H366.5l-0.1,68.6h120.2L406.3,230.3z"/>
</g>
</svg>
